<svg width="204" height="205" viewBox="0 0 204 205" fill="none" xmlns="http://www.w3.org/2000/svg">
<path d="M190 50.5C177.078 28.6905 155.194 11.8794 131.122 4.46224C107.05 -2.95498 81.1084 -1.07662 58.3308 9.73278C35.5533 20.5422 17.5647 39.5116 7.85619 62.9597C-1.85233 86.4077 -2.58832 112.662 5.79104 136.627L32.6116 127.064C26.5804 109.814 27.1101 90.9173 34.098 74.0401C41.0859 57.1629 54.1054 43.7803 70.5 36C87.5719 29.271 105 28.5 122.821 31.9354C139 38 152 46.5 162.5 62L190 50.5Z" fill="url(#paint0_linear_96_308)"/>
<path d="M2 121.026C6.73979 147.072 21.2779 170.255 42.5679 185.716C63.858 201.177 90.2475 207.718 116.207 203.966C142.166 200.215 165.68 186.463 181.821 165.592C197.963 144.722 205.479 118.352 202.795 92.009L174.328 92.0091C176.26 110.966 171.008 132.883 159.392 147.902C147.777 162.921 130.856 172.817 112.175 175.516C93.4946 178.216 74.5045 173.509 59.1839 162.383C43.8634 151.257 33.4016 134.575 29.9908 115.832L2 121.026Z" fill="url(#paint1_linear_96_308)"/>
<path d="M75.5904 122C80.5904 125.529 83.0904 127.5 95.0904 128.5C101.877 128.243 112.09 123.5 112.09 123.5L102.59 114.5C98.0904 110.995 94.3798 106.67 90.5904 103C87.2619 99.7769 83.5904 94.5001 79.5904 90.5001C77.6651 86.1581 78.9762 88.288 81.0904 84.0001C84.0904 80.5001 86.4363 77.2065 91.5904 75.0001C100.09 72.0001 101.09 72.5001 107.72 72.5001C113.09 74.5001 119.452 79.3913 123.09 83.0001L142.091 63.5C134.698 56.1672 125.379 50.6625 113.681 48.7966C101.983 46.9307 89.8181 48.3669 79.3453 52.8502C68.8725 57.3335 60.2079 69.7134 57.5906 74C54.9732 78.2866 51.9665 91.6208 55.8786 100.443C59.8944 109.5 67.0904 116 75.5904 122Z" fill="#78E6B9"/>
<path d="M152.03 118C152.69 132.828 145.907 145.443 139.219 150.972C132.53 156.5 123.53 163 111.53 165.5C100.53 166.5 93.03 166 82.03 163C71.6345 159.688 59.3424 152.827 54 145.636L69.53 131.5C73.03 135 79.521 138.904 84.53 140.5C89.5391 142.096 95.53 143 101.03 143C108.03 143 114.03 141.5 118.395 139.328C125.03 134 127.03 128 125.03 118H152.03Z" fill="#015FCB"/>
<path d="M98.8284 92H181.328L177.328 118.5L124.828 118L121.328 116.5L118.328 114L113.828 109.5L110.328 106L105.828 101L98.8284 92Z" fill="url(#paint2_linear_96_308)"/>
<defs>
<linearGradient id="paint0_linear_96_308" x1="62" y1="-12" x2="97" y2="217" gradientUnits="userSpaceOnUse">
<stop stop-color="#F4F4F4"/>
<stop offset="1" stop-color="#E4EEF9"/>
</linearGradient>
<linearGradient id="paint1_linear_96_308" x1="189" y1="130.5" x2="32.5" y2="190" gradientUnits="userSpaceOnUse">
<stop stop-color="#005FCC"/>
<stop offset="1" stop-color="white"/>
</linearGradient>
<linearGradient id="paint2_linear_96_308" x1="173" y1="106.5" x2="153.5" y2="115" gradientUnits="userSpaceOnUse">
<stop stop-color="#015FCC"/>
<stop offset="1" stop-color="#015FCB"/>
</linearGradient>
</defs>
</svg>
