<svg id="visual" viewBox="0 0 900 600" width="900" height="600" xmlns="http://www.w3.org/2000/svg" xmlns:xlink="http://www.w3.org/1999/xlink" version="1.1"><path d="M818 600L792.5 566.7C767 533.3 716 466.7 716 400C716 333.3 767 266.7 788 200C809 133.3 800 66.7 795.5 33.3L791 0L900 0L900 33.3C900 66.7 900 133.3 900 200C900 266.7 900 333.3 900 400C900 466.7 900 533.3 900 566.7L900 600Z" fill="#06397D"></path><path d="M80 600L84.5 566.7C89 533.3 98 466.7 137 400C176 333.3 245 266.7 326 200C407 133.3 500 66.7 546.5 33.3L593 0L792 0L796.5 33.3C801 66.7 810 133.3 789 200C768 266.7 717 333.3 717 400C717 466.7 768 533.3 793.5 566.7L819 600Z" fill="#36383f"></path><path d="M0 600L0 566.7C0 533.3 0 466.7 0 400C0 333.3 0 266.7 0 200C0 133.3 0 66.7 0 33.3L0 0L594 0L547.5 33.3C501 66.7 408 133.3 327 200C246 266.7 177 333.3 138 400C99 466.7 90 533.3 85.5 566.7L81 600Z" fill="#101010"></path></svg>